<?xml version="1.0" encoding="UTF-8" standalone="no"?>
<!DOCTYPE svg PUBLIC "-//W3C//DTD SVG 1.1//EN" "http://www.w3.org/Graphics/SVG/1.1/DTD/svg11.dtd">
<svg xmlns="http://www.w3.org/2000/svg" version="1.1" viewBox="0.00 0.00 500.00 100.00">
<rect fill="#080201" x="247.51" y="7.04" width="5.20" height="83.86" rx="2.53"/>
<rect fill="#080201" x="234.32" y="19.56" width="5.62" height="58.86" rx="2.77"/>
<rect fill="#080201" x="260.31" y="19.57" width="5.62" height="58.82" rx="2.76"/>
<rect fill="#080201" x="52.58" y="20.72" width="5.52" height="56.52" rx="2.63"/>
<rect fill="#080201" x="143.32" y="20.71" width="5.76" height="56.54" rx="2.84"/>
<rect fill="#080201" x="182.32" y="20.70" width="5.64" height="56.56" rx="2.77"/>
<rect fill="#080201" x="312.10" y="20.73" width="5.82" height="56.50" rx="2.86"/>
<rect fill="#080201" x="351.10" y="20.70" width="5.52" height="56.54" rx="2.68"/>
<rect fill="#080201" x="442.08" y="20.72" width="5.52" height="56.52" rx="2.68"/>
<rect fill="#080201" x="65.57" y="25.49" width="5.52" height="47.00" rx="2.71"/>
<rect fill="#080201" x="104.56" y="25.47" width="5.52" height="47.02" rx="2.71"/>
<rect fill="#080201" x="169.32" y="25.48" width="5.76" height="46.98" rx="2.83"/>
<rect fill="#080201" x="195.33" y="25.47" width="5.60" height="47.00" rx="2.75"/>
<rect fill="#080201" x="221.31" y="25.57" width="5.62" height="46.80" rx="2.75"/>
<rect fill="#080201" x="-2.81" y="-23.40" transform="translate(276.12,48.96) rotate(-0.1)" width="5.62" height="46.80" rx="2.76"/>
<rect fill="#080201" x="-2.80" y="-23.50" transform="translate(302.11,48.97) rotate(0.1)" width="5.60" height="47.00" rx="2.75"/>
<rect fill="#080201" x="325.10" y="25.48" width="5.82" height="46.98" rx="2.85"/>
<rect fill="#080201" x="390.10" y="25.48" width="5.52" height="47.00" rx="2.71"/>
<rect fill="#080201" x="429.09" y="25.49" width="5.52" height="46.98" rx="2.71"/>
<rect fill="#080201" x="91.57" y="30.20" width="5.52" height="37.54" rx="2.63"/>
<rect fill="#080201" x="117.56" y="30.18" width="5.52" height="37.58" rx="2.70"/>
<rect fill="#080201" x="377.10" y="30.16" width="5.52" height="37.62" rx="2.71"/>
<rect fill="#080201" x="403.09" y="30.19" width="5.52" height="37.56" rx="2.64"/>
<rect fill="#080201" x="39.60" y="32.54" width="5.68" height="32.88" rx="2.78"/>
<rect fill="#080201" x="454.86" y="32.55" width="5.74" height="32.86" rx="2.80"/>
<rect fill="#080201" x="208.32" y="33.98" width="5.62" height="30.00" rx="2.73"/>
<rect fill="#080201" x="286.30" y="33.96" width="5.62" height="30.04" rx="2.74"/>
<rect fill="#080201" x="-2.74" y="-13.28" transform="translate(29.56,48.98) rotate(-0.1)" width="5.48" height="26.56" rx="2.59"/>
<rect fill="#080201" x="-2.74" y="-13.28" transform="translate(470.59,48.98) rotate(-0.1)" width="5.48" height="26.56" rx="2.62"/>
<rect fill="#080201" x="78.58" y="36.72" width="5.52" height="24.52" rx="2.60"/>
<rect fill="#080201" x="130.54" y="36.70" width="5.54" height="24.56" rx="2.67"/>
<rect fill="#080201" x="156.34" y="36.72" width="5.74" height="24.52" rx="2.79"/>
<rect fill="#080201" x="338.11" y="36.73" width="5.80" height="24.50" rx="2.81"/>
<rect fill="#080201" x="364.11" y="36.70" width="5.52" height="24.56" rx="2.66"/>
<rect fill="#080201" x="416.08" y="36.73" width="5.52" height="24.50" rx="2.61"/>
<rect fill="#080201" x="13.86" y="39.98" width="5.44" height="18.00" rx="2.51"/>
<rect fill="#080201" x="480.86" y="39.97" width="5.46" height="18.02" rx="2.57"/>
</svg>
